# Blender 3.3.1
# www.blender.org
mtllib rump.mtl
o Cube
v -1.000000 -0.058135 1.000000
v -1.000000 0.058135 1.000000
v -1.000000 -0.058135 -1.000000
v -1.000000 -0.062351 -1.000000
v 1.000000 -0.058135 1.000000
v 1.000000 0.058135 1.000000
v 1.000000 -0.058135 -1.000000
v 1.000000 -0.062351 -1.000000
v -1.000000 0.791148 0.955841
v -1.000000 -0.051545 -1.044159
v 1.000000 -0.051545 -1.044159
v 1.000000 0.791148 0.955841
vn -1.0000 -0.0000 -0.0000
vn -0.0000 -0.0000 1.0000
vn 1.0000 -0.0000 -0.0000
vn -0.0000 -1.0000 -0.0000
vn -0.0000 -0.9713 -0.2377
vn -0.0000 0.9215 -0.3883
vn -0.0000 0.0601 0.9982
vt 0.375000 0.000000
vt 0.375000 1.000000
vt 0.125000 0.750000
vt 0.625000 0.000000
vt 0.625000 1.000000
vt 0.375000 0.250000
vt 0.125000 0.500000
vt 0.625000 0.250000
vt 0.375000 0.750000
vt 0.625000 0.750000
vt 0.375000 0.500000
vt 0.625000 0.500000
vt 0.875000 0.750000
vt 0.625000 0.000000
vt 0.625000 1.000000
vt 0.875000 0.500000
vt 0.625000 0.250000
vt 0.625000 0.500000
vt 0.625000 0.750000
s 0
f 1/1/1 2/4/1 4/8/1 3/6/1
f 3/6/2 4/8/2 8/12/2 7/11/2
f 7/11/3 8/12/3 6/10/3 5/9/3
f 5/9/2 6/10/2 2/5/2 1/2/2
f 3/7/4 7/11/4 5/9/4 1/3/4
f 8/12/5 4/8/5 10/17/5 11/18/5
f 11/18/6 10/16/6 9/13/6 12/19/6
f 6/10/3 8/12/3 11/18/3 12/19/3
f 4/8/1 2/4/1 9/14/1 10/17/1
f 2/5/7 6/10/7 12/19/7 9/15/7
